<?xml version="1.0" encoding="UTF-8" standalone="no"?>
<!-- Created with Inkscape (http://www.inkscape.org/) -->

<svg
   xmlns:dc="http://purl.org/dc/elements/1.1/"
   xmlns:cc="http://creativecommons.org/ns#"
   xmlns:rdf="http://www.w3.org/1999/02/22-rdf-syntax-ns#"
   xmlns:svg="http://www.w3.org/2000/svg"
   xmlns="http://www.w3.org/2000/svg"
   xmlns:sodipodi="http://sodipodi.sourceforge.net/DTD/sodipodi-0.dtd"
   xmlns:inkscape="http://www.inkscape.org/namespaces/inkscape"
   width="1000"
   height="1000"
   viewBox="0 0 1000 1000"
   id="svg2"
   version="1.1"
   inkscape:version="0.91 r13725"
   sodipodi:docname="css-modules.svg">
  <defs
     id="defs4" />
  <sodipodi:namedview
     id="base"
     pagecolor="#ffffff"
     bordercolor="#666666"
     borderopacity="1.0"
     inkscape:pageopacity="0.0"
     inkscape:pageshadow="2"
     inkscape:zoom="0.1767767"
     inkscape:cx="-477.03849"
     inkscape:cy="250.86866"
     inkscape:document-units="px"
     inkscape:current-layer="flowRoot3336"
     showgrid="false"
     units="px"
     inkscape:window-width="1436"
     inkscape:window-height="856"
     inkscape:window-x="4"
     inkscape:window-y="0"
     inkscape:window-maximized="1" />
  <metadata
     id="metadata7">
    <rdf:RDF>
      <cc:Work
         rdf:about="">
        <dc:format>image/svg+xml</dc:format>
        <dc:type
           rdf:resource="http://purl.org/dc/dcmitype/StillImage" />
        <dc:title />
      </cc:Work>
    </rdf:RDF>
  </metadata>
  <g
     inkscape:label="Layer 1"
     inkscape:groupmode="layer"
     id="layer1"
     transform="translate(0,-52.36216)">
    <g
       transform="matrix(1.8594962,0,0,1.8594962,-30.174052,333.87231)"
       style="font-style:normal;font-weight:normal;font-size:40px;line-height:125%;font-family:sans-serif;letter-spacing:0px;word-spacing:0px;fill:#000000;fill-opacity:1;stroke:none;stroke-width:1px;stroke-linecap:butt;stroke-linejoin:miter;stroke-opacity:1"
       id="flowRoot3336">
      <path
         d="m 107.48114,103.51229 q 12.26074,0 19.02832,6.45996 6.76758,6.45996 7.51465,14.67773 l -8.52539,0 q -1.4502,-6.24023 -5.80078,-9.88769 -4.30664,-3.64746 -12.12891,-3.64746 -9.536134,0 -15.424806,6.72363 -5.844726,6.67969 -5.844726,20.52246 0,11.33789 5.273437,18.41309 5.317383,7.03125 15.820315,7.03125 9.66797,0 14.72168,-7.42676 2.68066,-3.91114 3.99902,-10.28321 l 8.52539,0 q -1.14257,10.19532 -7.55859,17.09473 -7.69043,8.30566 -20.74219,8.30566 -11.25,0 -18.896484,-6.81152 -10.063477,-9.00879 -10.063477,-27.81738 0,-14.28223 7.558594,-23.42285 8.173828,-9.93164 22.543947,-9.93164 z m -1.75781,0 0,0 z"
         style="font-style:normal;font-variant:normal;font-weight:normal;font-stretch:normal;font-size:90px;font-family:Helvetica;-inkscape-font-specification:Helvetica"
         id="path4379"
         inkscape:connector-curvature="0" />
      <path
         d="m 151.03095,148.99568 q 0.30761,5.49317 2.59277,8.9209 4.35059,6.41602 15.33691,6.41602 4.92188,0 8.96485,-1.40625 7.82226,-2.72461 7.82226,-9.75586 0,-5.27344 -3.2959,-7.51465 -3.33984,-2.19726 -10.45898,-3.82324 l -8.74512,-1.97754 q -8.56933,-1.93359 -12.1289,-4.2627 -6.15235,-4.04296 -6.15235,-12.08496 0,-8.70117 6.02051,-14.28222 6.02051,-5.58106 17.05078,-5.58106 10.15137,0 17.22656,4.92188 7.11915,4.87793 7.11915,15.64453 l -8.21778,0 q -0.65918,-5.18555 -2.8125,-7.9541 -3.99902,-5.05371 -13.5791,-5.05371 -7.73437,0 -11.11816,3.25195 -3.38379,3.25195 -3.38379,7.55859 0,4.7461 3.95508,6.94336 2.59277,1.40625 11.73339,3.51563 l 9.05274,2.06543 q 6.54785,1.49414 10.10742,4.08691 6.15234,4.52637 6.15234,13.13965 0,10.72266 -7.82226,15.33691 -7.77832,4.61426 -18.10547,4.61426 -12.04102,0 -18.85254,-6.15234 -6.81152,-6.1084 -6.67969,-16.56739 l 8.21778,0 z m 17.66601,-45.48339 0,0 z"
         style="font-style:normal;font-variant:normal;font-weight:normal;font-stretch:normal;font-size:90px;font-family:Helvetica;-inkscape-font-specification:Helvetica"
         id="path4381"
         inkscape:connector-curvature="0" />
      <path
         d="m 210.97235,148.99568 q 0.30762,5.49317 2.59278,8.9209 4.35058,6.41602 15.33691,6.41602 4.92187,0 8.96484,-1.40625 7.82227,-2.72461 7.82227,-9.75586 0,-5.27344 -3.2959,-7.51465 -3.33984,-2.19726 -10.45898,-3.82324 l -8.74512,-1.97754 q -8.56934,-1.93359 -12.12891,-4.2627 -6.15234,-4.04296 -6.15234,-12.08496 0,-8.70117 6.02051,-14.28222 6.0205,-5.58106 17.05078,-5.58106 10.15137,0 17.22656,4.92188 7.11914,4.87793 7.11914,15.64453 l -8.21777,0 q -0.65918,-5.18555 -2.8125,-7.9541 -3.99903,-5.05371 -13.5791,-5.05371 -7.73438,0 -11.11817,3.25195 -3.38379,3.25195 -3.38379,7.55859 0,4.7461 3.95508,6.94336 2.59277,1.40625 11.7334,3.51563 l 9.05273,2.06543 q 6.54786,1.49414 10.10743,4.08691 6.15234,4.52637 6.15234,13.13965 0,10.72266 -7.82227,15.33691 -7.77832,4.61426 -18.10546,4.61426 -12.04102,0 -18.85254,-6.15234 -6.81153,-6.1084 -6.67969,-16.56739 l 8.21777,0 z m 17.66602,-45.48339 0,0 z"
         style="font-style:normal;font-variant:normal;font-weight:normal;font-stretch:normal;font-size:90px;font-family:Helvetica;-inkscape-font-specification:Helvetica"
         id="path4383"
         inkscape:connector-curvature="0" />
      <path
         d="m 80.059264,217.7701 12.524414,0 18.544922,54.58008 18.41309,-54.58008 12.39258,0 0,64.55566 -8.30567,0 0,-38.10058 q 0,-1.97754 0.0879,-6.54785 0.0879,-4.57032 0.0879,-9.79981 l -18.41308,54.44824 -8.65723,0 -18.544924,-54.44824 0,1.97754 q 0,2.37305 0.08789,7.25098 0.131836,4.83398 0.131836,7.11914 l 0,38.10058 -8.349609,0 0,-64.55566 z"
         style="font-style:normal;font-variant:normal;font-weight:normal;font-stretch:normal;font-size:90px;font-family:Helvetica;-inkscape-font-specification:Helvetica"
         id="path4385"
         inkscape:connector-curvature="0" />
      <path
         d="m 183.19891,216.01229 q 17.09473,0 25.3125,10.98632 6.41602,8.56934 6.41602,21.92872 0,14.458 -7.33887,24.03808 -8.61328,11.25 -24.56543,11.25 -14.89746,0 -23.42285,-9.84375 -7.60254,-9.49219 -7.60254,-23.99414 0,-13.0957 6.50391,-22.41211 8.34961,-11.95312 24.69726,-11.95312 z m 0.87891,60.38086 q 11.55762,0 16.69922,-8.26172 5.18555,-8.30567 5.18555,-19.07227 0,-11.38183 -5.97657,-18.32519 -5.93261,-6.94336 -16.25976,-6.94336 -10.01953,0 -16.34766,6.89941 -6.32812,6.85547 -6.32812,20.25879 0,10.72266 5.40527,18.10547 5.44922,7.33887 17.62207,7.33887 z m -0.61523,-60.38086 0,0 z"
         style="font-style:normal;font-variant:normal;font-weight:normal;font-stretch:normal;font-size:90px;font-family:Helvetica;-inkscape-font-specification:Helvetica"
         id="path4387"
         inkscape:connector-curvature="0" />
      <path
         d="m 250.08368,274.85506 q 4.43848,0 7.29492,-0.92285 5.09766,-1.71387 8.34961,-6.5918 2.59278,-3.91113 3.73535,-10.01953 0.65918,-3.64746 0.65918,-6.76758 0,-11.99707 -4.79004,-18.63281 -4.74609,-6.63574 -15.33691,-6.63574 l -15.5127,0 0,49.57031 15.60059,0 z m -24.38965,-57.08496 26.14746,0 q 13.31543,0 20.6543,9.44824 6.54785,8.52539 6.54785,21.84082 0,10.2832 -3.86719,18.58887 -6.81152,14.67773 -23.42285,14.67773 l -26.05957,0 0,-64.55566 z"
         style="font-style:normal;font-variant:normal;font-weight:normal;font-stretch:normal;font-size:90px;font-family:Helvetica;-inkscape-font-specification:Helvetica"
         id="path4389"
         inkscape:connector-curvature="0" />
      <path
         d="m 299.82977,217.7701 0,39.90234 q 0,7.03125 2.63672,11.68946 3.91114,7.03125 13.1836,7.03125 11.11816,0 15.11718,-7.60254 2.15332,-4.13086 2.15332,-11.11817 l 0,-39.90234 8.87696,0 0,36.25488 q 0,11.90918 -3.20801,18.3252 -5.88867,11.68945 -22.23633,11.68945 -16.34765,0 -22.19238,-11.68945 -3.20801,-6.41602 -3.20801,-18.3252 l 0,-36.25488 8.87695,0 z m 16.56739,0 0,0 z"
         style="font-style:normal;font-variant:normal;font-weight:normal;font-stretch:normal;font-size:90px;font-family:Helvetica;-inkscape-font-specification:Helvetica"
         id="path4391"
         inkscape:connector-curvature="0" />
      <path
         d="m 355.20087,217.7701 8.74512,0 0,56.86523 32.69531,0 0,7.69043 -41.44043,0 0,-64.55566 z"
         style="font-style:normal;font-variant:normal;font-weight:normal;font-stretch:normal;font-size:90px;font-family:Helvetica;-inkscape-font-specification:Helvetica"
         id="path4393"
         inkscape:connector-curvature="0" />
      <path
         d="m 406.13349,217.7701 47.06542,0 0,7.91016 -38.54003,0 0,19.5996 35.63964,0 0,7.47071 -35.63964,0 0,21.88476 39.19921,0 0,7.69043 -47.7246,0 0,-64.55566 z m 23.8623,0 0,0 z"
         style="font-style:normal;font-variant:normal;font-weight:normal;font-stretch:normal;font-size:90px;font-family:Helvetica;-inkscape-font-specification:Helvetica"
         id="path4395"
         inkscape:connector-curvature="0" />
      <path
         d="m 471.1286,261.49568 q 0.30762,5.49317 2.59278,8.9209 4.35058,6.41602 15.33691,6.41602 4.92187,0 8.96484,-1.40625 7.82227,-2.72461 7.82227,-9.75586 0,-5.27344 -3.2959,-7.51465 -3.33984,-2.19726 -10.45898,-3.82324 l -8.74512,-1.97754 q -8.56934,-1.93359 -12.12891,-4.2627 -6.15234,-4.04296 -6.15234,-12.08496 0,-8.70117 6.02051,-14.28222 6.0205,-5.58106 17.05078,-5.58106 10.15137,0 17.22656,4.92188 7.11914,4.87793 7.11914,15.64453 l -8.21777,0 q -0.65918,-5.18555 -2.8125,-7.9541 -3.99903,-5.05371 -13.5791,-5.05371 -7.73438,0 -11.11817,3.25195 -3.38379,3.25195 -3.38379,7.55859 0,4.7461 3.95508,6.94336 2.59277,1.40625 11.7334,3.51563 l 9.05273,2.06543 q 6.54786,1.49414 10.10743,4.08691 6.15234,4.52637 6.15234,13.13965 0,10.72266 -7.82227,15.33691 -7.77832,4.61426 -18.10546,4.61426 -12.04102,0 -18.85254,-6.15234 -6.81153,-6.1084 -6.67969,-16.56739 l 8.21777,0 z m 17.66602,-45.48339 0,0 z"
         style="font-style:normal;font-variant:normal;font-weight:normal;font-stretch:normal;font-size:90px;font-family:Helvetica;-inkscape-font-specification:Helvetica"
         id="path4397"
         inkscape:connector-curvature="0" />
    </g>
    <rect
       id="rect4156"
       width="695.01526"
       height="695.01526"
       x="76.203529"
       y="204.85454"
       style="fill:none;fill-rule:nonzero;stroke:#000000;stroke-width:5;stroke-miterlimit:4;stroke-dasharray:none;stroke-opacity:1" />
  </g>
</svg>
