<svg viewBox="0 0 24 20" fill="none" xmlns="http://www.w3.org/2000/svg">
<path fill-rule="evenodd" clip-rule="evenodd" d="M2 2V18H18V2H2ZM1 0C0.447715 0 0 0.447716 0 1V19C0 19.5523 0.447716 20 1 20H19C19.5523 20 20 19.5523 20 19V1C20 0.447715 19.5523 0 19 0H1Z" fill-opacity="0.68" fill="#000"/>
<path d="M4 15C4 14.4477 4.44772 14 5 14H23C23.5523 14 24 14.4477 24 15V15C24 15.5523 23.5523 16 23 16H5C4.44772 16 4 15.5523 4 15V15Z" fill="#000" />
<path d="M4 12C4 11.4477 4.44772 11 5 11H9C9.55228 11 10 11.4477 10 12V12C10 12.5523 9.55228 13 9 13H5C4.44772 13 4 12.5523 4 12V12Z" fill="#000" />
</svg>
